# xmcd CD database file
#
# Track frame offsets:
#	150
#	16054
#	34132
#	52801
#	82599
#	98121
#	119660
#	131982
#	148881
#	162880
#	183298
#	201307
#	212530
#	231980
#	254808
#
# Disc length: 3633 seconds
#
# Revision: 0
# Processed by: cddbd v1.5.1PL2 Copyright (c) Steve Scherf et al.
# Submitted via: CDex 1.50
#
DISCID=d30e2f0f
DTITLE=Blues Compilation - Blues Compilation
DYEAR=2000
DGENRE=Blues
TTITLE0=The Letter ''B.B. King''
TTITLE1=Big Boss Man ''Koko Taylor''
TTITLE2=The Score ''Robert Cray''
TTITLE3=I'll Play The Blues For You ''Mick Taylor''
TTITLE4=Jump Into Love ''Etta James''
TTITLE5=Women Lovin' Each Other ''Mike Bloomfield''
TTITLE6=Blues For The Lowlands ''Sonny Terry and Brownie Mc Ghee''
TTITLE7=Just Landed In Your Town ''Memphis Slim''
TTITLE8=I'm Gonna Move On The Outkirts Of Town ''Little Milton''
TTITLE9=Glory Be ''Lightnin Blues''
TTITLE10=Lend Us A Quid ''Steve Marriot''
TTITLE11=My Underclothe's Aren't Red ''Hot Fussion Blues''
TTITLE12=Out Of The Street Again ''Etta James''
TTITLE13=Boom Boom ''Sonny Boy Williamson''
TTITLE14=Mannish Boy ''Muddy Waters''
EXTD=YEAR: 2000
EXTT0=
EXTT1=
EXTT2=
EXTT3=
EXTT4=
EXTT5=
EXTT6=
EXTT7=
EXTT8=
EXTT9=
EXTT10=
EXTT11=
EXTT12=
EXTT13=
EXTT14=
PLAYORDER=
